<!--?xml version="1.0" encoding="UTF-8"?-->
<svg width="253px" height="212px" viewBox="0 0 253 212" version="1.1" xmlns="http://www.w3.org/2000/svg" xmlns:xlink="http://www.w3.org/1999/xlink" class="" style="">
    <!-- Generator: Sketch 52.5 (67469) - http://www.bohemiancoding.com/sketch -->
    <title>bigdipper </title>
    <desc>Created with Sketch.</desc>
    <g id="bigdipper-" stroke="none" stroke-width="1" fill="none" fill-rule="evenodd">
        <path d="M238.316223,24.4646697 L196.558179,45.1124559 L148.276204,101.630929 L146.921686,162.871448 L55.4407392,167.871843 L30.502565,112.774897 C104.464904,102.929621 143.722783,99.2149653 148.276204,101.630929" id="Path" stroke="#FFFFFF" stroke-width="4" class="dhkeTYLb_0"></path>
        <path id="Star" fill="#EBD7FB" d="M147.5,105.75L143.679396,107.75861L144.409066,103.504305L141.318133,100.49139L145.589698,99.8706948L147.5,96L149.410302,99.8706948L153.681867,100.49139L150.590934,103.504305L151.320604,107.75861Z" class="dhkeTYLb_1"></path>
        <path id="Star" fill="#EBD7FB" d="M147.5,165.75L143.679396,167.75861L144.409066,163.504305L141.318133,160.49139L145.589698,159.870695L147.5,156L149.410302,159.870695L153.681867,160.49139L150.590934,163.504305L151.320604,167.75861Z" class="dhkeTYLb_2"></path>
        <path id="Star" fill="#EBD7FB" d="M55.5,171.75L51.6793959,173.75861L52.4090663,169.504305L49.3181326,166.49139L53.5896979,165.870695L55.5,162L57.4103021,165.870695L61.6818674,166.49139L58.5909337,169.504305L59.3206041,173.75861Z" class="dhkeTYLb_3"></path>
        <path id="Star" fill="#EBD7FB" d="M30.5,115.75L26.6793959,117.75861L27.4090663,113.504305L24.3181326,110.49139L28.5896979,109.870695L30.5,106L32.4103021,109.870695L36.6818674,110.49139L33.5909337,113.504305L34.3206041,117.75861Z" class="dhkeTYLb_4"></path>
        <path id="Star" fill="#EBD7FB" d="M197.5,47.75L193.679396,49.7586105L194.409066,45.5043052L191.318133,42.4913895L195.589698,41.8706948L197.5,38L199.410302,41.8706948L203.681867,42.4913895L200.590934,45.5043052L201.320604,49.7586105Z" class="dhkeTYLb_5"></path>
        <path id="Star" fill="#EBD7FB" d="M236.5,28.75L232.679396,30.7586105L233.409066,26.5043052L230.318133,23.4913895L234.589698,22.8706948L236.5,19L238.410302,22.8706948L242.681867,23.4913895L239.590934,26.5043052L240.320604,30.7586105Z" class="dhkeTYLb_6"></path>
    </g>
<style data-made-with="vivus-instant">.dhkeTYLb_0{stroke-dasharray:453 455;stroke-dashoffset:454;}.start .dhkeTYLb_0{animation:dhkeTYLb_draw 5000ms ease-in-out 0ms forwards;}.dhkeTYLb_1{stroke-dasharray:44 46;stroke-dashoffset:45;}.start .dhkeTYLb_1{animation:dhkeTYLb_draw 5000ms ease-in-out 0ms forwards;}.dhkeTYLb_2{stroke-dasharray:44 46;stroke-dashoffset:45;}.start .dhkeTYLb_2{animation:dhkeTYLb_draw 5000ms ease-in-out 0ms forwards;}.dhkeTYLb_3{stroke-dasharray:44 46;stroke-dashoffset:45;}.start .dhkeTYLb_3{animation:dhkeTYLb_draw 5000ms ease-in-out 0ms forwards;}.dhkeTYLb_4{stroke-dasharray:44 46;stroke-dashoffset:45;}.start .dhkeTYLb_4{animation:dhkeTYLb_draw 5000ms ease-in-out 0ms forwards;}.dhkeTYLb_5{stroke-dasharray:44 46;stroke-dashoffset:45;}.start .dhkeTYLb_5{animation:dhkeTYLb_draw 5000ms ease-in-out 0ms forwards;}.dhkeTYLb_6{stroke-dasharray:44 46;stroke-dashoffset:45;}.start .dhkeTYLb_6{animation:dhkeTYLb_draw 5000ms ease-in-out 0ms forwards;}@keyframes dhkeTYLb_draw{100%{stroke-dashoffset:0;}}@keyframes dhkeTYLb_fade{0%{stroke-opacity:1;}95.65217391304348%{stroke-opacity:1;}100%{stroke-opacity:0;}}</style></svg>