<!--?xml version="1.0" encoding="UTF-8"?-->
<svg width="138px" height="152px" viewBox="0 0 138 152" version="1.1" xmlns="http://www.w3.org/2000/svg" xmlns:xlink="http://www.w3.org/1999/xlink" class="" style="">
    <!-- Generator: Sketch 52.5 (67469) - http://www.bohemiancoding.com/sketch -->
    <title>cassiopeia</title>
    <desc>Created with Sketch.</desc>
    <g id="cassiopeia" stroke="none" stroke-width="1" fill="none" fill-rule="evenodd">
        <path id="Path-4" stroke="#FFFFFF" stroke-width="4" d="M63.644237,112L90.9190706,85.7024555L65.5154173,65.0551516L75.895377,46.4729474L44.4303118,33.6926024" class="aaJDodbT_0"></path>
        <path id="Star" fill="#EBD7FB" d="M44.5,37.75L40.6793959,39.7586105L41.4090663,35.5043052L38.3181326,32.4913895L42.5896979,31.8706948L44.5,28L46.4103021,31.8706948L50.6818674,32.4913895L47.5909337,35.5043052L48.3206041,39.7586105Z" class="aaJDodbT_1"></path>
        <path id="Star" fill="#EBD7FB" d="M74.5,49.75L70.6793959,51.7586105L71.4090663,47.5043052L68.3181326,44.4913895L72.5896979,43.8706948L74.5,40L76.4103021,43.8706948L80.6818674,44.4913895L77.5909337,47.5043052L78.3206041,51.7586105Z" class="aaJDodbT_2"></path>
        <path id="Star" fill="#EBD7FB" d="M65.5,69.75L61.6793959,71.7586105L62.4090663,67.5043052L59.3181326,64.4913895L63.5896979,63.8706948L65.5,60L67.4103021,63.8706948L71.6818674,64.4913895L68.5909337,67.5043052L69.3206041,71.7586105Z" class="aaJDodbT_3"></path>
        <path id="Star" fill="#EBD7FB" d="M90.5,89.75L86.6793959,91.7586105L87.4090663,87.5043052L84.3181326,84.4913895L88.5896979,83.8706948L90.5,80L92.4103021,83.8706948L96.6818674,84.4913895L93.5909337,87.5043052L94.3206041,91.7586105Z" class="aaJDodbT_4"></path>
        <path id="Star" fill="#EBD7FB" d="M63.5,115.75L59.6793959,117.75861L60.4090663,113.504305L57.3181326,110.49139L61.5896979,109.870695L63.5,106L65.4103021,109.870695L69.6818674,110.49139L66.5909337,113.504305L67.3206041,117.75861Z" class="aaJDodbT_5"></path>
    </g>
<style data-made-with="vivus-instant">.aaJDodbT_0{stroke-dasharray:126 128;stroke-dashoffset:127;}.start .aaJDodbT_0{animation:aaJDodbT_draw 5000ms ease-in-out 0ms forwards;}.aaJDodbT_1{stroke-dasharray:44 46;stroke-dashoffset:45;}.start .aaJDodbT_1{animation:aaJDodbT_draw 5000ms ease-in-out 0ms forwards;}.aaJDodbT_2{stroke-dasharray:44 46;stroke-dashoffset:45;}.start .aaJDodbT_2{animation:aaJDodbT_draw 5000ms ease-in-out 0ms forwards;}.aaJDodbT_3{stroke-dasharray:44 46;stroke-dashoffset:45;}.start .aaJDodbT_3{animation:aaJDodbT_draw 5000ms ease-in-out 0ms forwards;}.aaJDodbT_4{stroke-dasharray:44 46;stroke-dashoffset:45;}.start .aaJDodbT_4{animation:aaJDodbT_draw 5000ms ease-in-out 0ms forwards;}.aaJDodbT_5{stroke-dasharray:44 46;stroke-dashoffset:45;}.start .aaJDodbT_5{animation:aaJDodbT_draw 5000ms ease-in-out 0ms forwards;}@keyframes aaJDodbT_draw{100%{stroke-dashoffset:0;}}@keyframes aaJDodbT_fade{0%{stroke-opacity:1;}95.65217391304348%{stroke-opacity:1;}100%{stroke-opacity:0;}}</style></svg>