<!--?xml version="1.0" encoding="UTF-8"?-->
<svg width="83px" height="134px" viewBox="0 0 83 134" version="1.1" xmlns="http://www.w3.org/2000/svg" xmlns:xlink="http://www.w3.org/1999/xlink" class="" style="">
    <!-- Generator: Sketch 52.5 (67469) - http://www.bohemiancoding.com/sketch -->
    <title>delphinus copy</title>
    <desc>Created with Sketch.</desc>
    <g id="delphinus-copy" stroke="none" stroke-width="1" fill="none" fill-rule="evenodd">
        <path id="Path-2" stroke="#FFFFFF" stroke-width="4" d="M19,106L31.414185,86.3200616L53,74.5502063L53,22L31.414185,34.0114757L31.414185,86.3200616" class="HtwwCHPI_0"></path>
        <path id="E" fill="#EBD7FB" d="M20.5,109.75L16.6793959,111.75861L17.4090663,107.504305L14.3181326,104.49139L18.5896979,103.870695L20.5,100L22.4103021,103.870695L26.6818674,104.49139L23.5909337,107.504305L24.3206041,111.75861Z" class="HtwwCHPI_1"></path>
        <path id="D" fill="#EBD7FB" d="M32.5,89.75L28.6793959,91.7586105L29.4090663,87.5043052L26.3181326,84.4913895L30.5896979,83.8706948L32.5,80L34.4103021,83.8706948L38.6818674,84.4913895L35.5909337,87.5043052L36.3206041,91.7586105Z" class="HtwwCHPI_2"></path>
        <path id="C" fill="#EBD7FB" d="M31.5,37.75L27.6793959,39.7586105L28.4090663,35.5043052L25.3181326,32.4913895L29.5896979,31.8706948L31.5,28L33.4103021,31.8706948L37.6818674,32.4913895L34.5909337,35.5043052L35.3206041,39.7586105Z" class="HtwwCHPI_3"></path>
        <path id="B" fill="#EBD7FB" d="M53.5,78.75L49.6793959,80.7586105L50.4090663,76.5043052L47.3181326,73.4913895L51.5896979,72.8706948L53.5,69L55.4103021,72.8706948L59.6818674,73.4913895L56.5909337,76.5043052L57.3206041,80.7586105Z" class="HtwwCHPI_4"></path>
        <path id="A" fill="#EBD7FB" d="M54.5,25.75L50.6793959,27.7586105L51.4090663,23.5043052L48.3181326,20.4913895L52.5896979,19.8706948L54.5,16L56.4103021,19.8706948L60.6818674,20.4913895L57.5909337,23.5043052L58.3206041,27.7586105Z" class="HtwwCHPI_5"></path>
    </g>
<style data-made-with="vivus-instant">.HtwwCHPI_0{stroke-dasharray:178 180;stroke-dashoffset:179;}.start .HtwwCHPI_0{animation:HtwwCHPI_draw 5000ms ease-in-out 0ms forwards;}.HtwwCHPI_1{stroke-dasharray:44 46;stroke-dashoffset:45;}.start .HtwwCHPI_1{animation:HtwwCHPI_draw 5000ms ease-in-out 0ms forwards;}.HtwwCHPI_2{stroke-dasharray:44 46;stroke-dashoffset:45;}.start .HtwwCHPI_2{animation:HtwwCHPI_draw 5000ms ease-in-out 0ms forwards;}.HtwwCHPI_3{stroke-dasharray:44 46;stroke-dashoffset:45;}.start .HtwwCHPI_3{animation:HtwwCHPI_draw 5000ms ease-in-out 0ms forwards;}.HtwwCHPI_4{stroke-dasharray:44 46;stroke-dashoffset:45;}.start .HtwwCHPI_4{animation:HtwwCHPI_draw 5000ms ease-in-out 0ms forwards;}.HtwwCHPI_5{stroke-dasharray:44 46;stroke-dashoffset:45;}.start .HtwwCHPI_5{animation:HtwwCHPI_draw 5000ms ease-in-out 0ms forwards;}@keyframes HtwwCHPI_draw{100%{stroke-dashoffset:0;}}@keyframes HtwwCHPI_fade{0%{stroke-opacity:1;}95.65217391304348%{stroke-opacity:1;}100%{stroke-opacity:0;}}</style></svg>