<!--?xml version="1.0" encoding="UTF-8"?-->
<svg width="275px" height="316px" viewBox="0 0 275 316" version="1.1" xmlns="http://www.w3.org/2000/svg" xmlns:xlink="http://www.w3.org/1999/xlink" class="" style="">
    <!-- Generator: Sketch 52.5 (67469) - http://www.bohemiancoding.com/sketch -->
    <title>orion copy</title>
    <desc>Created with Sketch.</desc>
    <g id="orion-copy" stroke="none" stroke-width="1" fill="none" fill-rule="evenodd">
        <g id="Group" transform="translate(43.000000, 26.000000)">
            <path d="M131.724963,247.043821 L62.466582,259.100895 L79.1706129,206.644021 L92.218784,198.075763 L101.256312,192.107232 L130.953734,247.043821 L101.256312,192.107232 L105.70781,167.495165 L111.072179,137.835883 L176.084449,115.614566 L170.091574,87.1791028 C151.568999,80.425651 144.099097,77.5663228 147.681867,78.601118 L152.140074,80.6109234 C156.142055,81.7667976 162.034049,83.8467449 169.816056,86.8507652 C173.358224,100.938639 175.611382,110.864428 176.575528,116.62813 C177.120973,119.888818 179.035174,127.521953 182.318133,139.527535 L183.681867,165.857355 L173.853181,174.111476 L183.681867,165.857355 L182.318133,139.527535 C179.4306,123.534627 176.874475,115.901492 174.649757,116.62813 C170.451803,117.999266 149.259277,124.789889 111.072179,137 C111.424004,137.795556 111.424004,138.074184 111.072179,137.835883 C109.313107,136.644416 100.679702,127.336282 85.1719636,109.911481 L45.1477007,132.526807 L79.1706129,206 L45.1477007,132.526807 L27.7087148,116.62813 C21.6758405,101.951832 18.0561779,93.2140916 16.8497269,90.4149075 C16.7774038,90.2471049 13.2764158,81.2793599 6.34676276,63.5116727 L25.3613344,58.2919882 L33.4750041,4.94328392 L25.3613344,58.2919882 L6.34676276,63.5116727 L7.46168302,11.324554" id="Path-6" stroke="#FFFFFF" stroke-width="3" class="PKTMIqFR_0"></path>
            <path id="Star" fill="#EBD7FB" d="M173.5,177.75L169.679396,179.75861L170.409066,175.504305L167.318133,172.49139L171.589698,171.870695L173.5,168L175.410302,171.870695L179.681867,172.49139L176.590934,175.504305L177.320604,179.75861Z" class="PKTMIqFR_1"></path>
            <path id="Star" fill="#EBD7FB" d="M182.5,167.75L178.679396,169.75861L179.409066,165.504305L176.318133,162.49139L180.589698,161.870695L182.5,158L184.410302,161.870695L188.681867,162.49139L185.590934,165.504305L186.320604,169.75861Z" class="PKTMIqFR_2"></path>
            <path id="Star" fill="#EBD7FB" d="M182.5,143.75L178.679396,145.75861L179.409066,141.504305L176.318133,138.49139L180.589698,137.870695L182.5,134L184.410302,137.870695L188.681867,138.49139L185.590934,141.504305L186.320604,145.75861Z" class="PKTMIqFR_3"></path>
            <path id="Star" fill="#EBD7FB" d="M176.5,119.75L172.679396,121.75861L173.409066,117.504305L170.318133,114.49139L174.589698,113.870695L176.5,110L178.410302,113.870695L182.681867,114.49139L179.590934,117.504305L180.320604,121.75861Z" class="PKTMIqFR_4"></path>
            <path id="Star" fill="#EBD7FB" d="M167.5,88.75L163.679396,90.7586105L164.409066,86.5043052L161.318133,83.4913895L165.589698,82.8706948L167.5,79L169.410302,82.8706948L173.681867,83.4913895L170.590934,86.5043052L171.320604,90.7586105Z" class="PKTMIqFR_5"></path>
            <path id="Star" fill="#EBD7FB" d="M145.5,81.25L141.679396,83.2586105L142.409066,79.0043052L139.318133,75.9913895L143.589698,75.3706948L145.5,71.5L147.410302,75.3706948L151.681867,75.9913895L148.590934,79.0043052L149.320604,83.2586105Z" class="PKTMIqFR_6"></path>
            <path id="Star" fill="#EBD7FB" d="M85.5,113.75L81.6793959,115.75861L82.4090663,111.504305L79.3181326,108.49139L83.5896979,107.870695L85.5,104L87.4103021,107.870695L91.6818674,108.49139L88.5909337,111.504305L89.3206041,115.75861Z" class="PKTMIqFR_7"></path>
            <path id="Star" fill="#EBD7FB" d="M44.5,135.75L40.6793959,137.75861L41.4090663,133.504305L38.3181326,130.49139L42.5896979,129.870695L44.5,126L46.4103021,129.870695L50.6818674,130.49139L47.5909337,133.504305L48.3206041,137.75861Z" class="PKTMIqFR_8"></path>
            <path id="Star" fill="#EBD7FB" d="M27.5,119.75L23.6793959,121.75861L24.4090663,117.504305L21.3181326,114.49139L25.5896979,113.870695L27.5,110L29.4103021,113.870695L33.6818674,114.49139L30.5909337,117.504305L31.3206041,121.75861Z" class="PKTMIqFR_9"></path>
            <path id="Star" fill="#EBD7FB" d="M7.5,66.75L3.67939586,68.7586105L4.40906632,64.5043052L1.31813264,61.4913895L5.58969793,60.8706948L7.5,57L9.41030207,60.8706948L13.6818674,61.4913895L10.5909337,64.5043052L11.3206041,68.7586105Z" class="PKTMIqFR_10"></path>
            <path id="Star" fill="#EBD7FB" d="M24.5,59.75L20.6793959,61.7586105L21.4090663,57.5043052L18.3181326,54.4913895L22.5896979,53.8706948L24.5,50L26.4103021,53.8706948L30.6818674,54.4913895L27.5909337,57.5043052L28.3206041,61.7586105Z" class="PKTMIqFR_11"></path>
            <path id="Star" fill="#EBD7FB" d="M33.5,9.75L29.6793959,11.7586105L30.4090663,7.50430523L27.3181326,4.49138954L31.5896979,3.87069477L33.5,0L35.4103021,3.87069477L39.6818674,4.49138954L36.5909337,7.50430523L37.3206041,11.7586105Z" class="PKTMIqFR_12"></path>
            <path id="Star" fill="#EBD7FB" d="M6.5,15.75L2.67939586,17.7586105L3.40906632,13.5043052L0.318132644,10.4913895L4.58969793,9.87069477L6.5,6L8.41030207,9.87069477L12.6818674,10.4913895L9.59093368,13.5043052L10.3206041,17.7586105Z" class="PKTMIqFR_13"></path>
            <path id="Star" fill="#EBD7FB" d="M111.5,141.75L107.679396,143.75861L108.409066,139.504305L105.318133,136.49139L109.589698,135.870695L111.5,132L113.410302,135.870695L117.681867,136.49139L114.590934,139.504305L115.320604,143.75861Z" class="PKTMIqFR_14"></path>
            <path id="Star" fill="#EBD7FB" d="M102.5,194.75L98.6793959,196.75861L99.4090663,192.504305L96.3181326,189.49139L100.589698,188.870695L102.5,185L104.410302,188.870695L108.681867,189.49139L105.590934,192.504305L106.320604,196.75861Z" class="PKTMIqFR_15"></path>
            <path id="Star" fill="#EBD7FB" d="M130.5,250.75L126.679396,252.75861L127.409066,248.504305L124.318133,245.49139L128.589698,244.870695L130.5,241L132.410302,244.870695L136.681867,245.49139L133.590934,248.504305L134.320604,252.75861Z" class="PKTMIqFR_16"></path>
            <path id="Star" fill="#EBD7FB" d="M62.5,262.75L58.6793959,264.75861L59.4090663,260.504305L56.3181326,257.49139L60.5896979,256.870695L62.5,253L64.4103021,256.870695L68.6818674,257.49139L65.5909337,260.504305L66.3206041,264.75861Z" class="PKTMIqFR_17"></path>
            <path id="Star" fill="#EBD7FB" d="M91.5,201.75L87.6793959,203.75861L88.4090663,199.504305L85.3181326,196.49139L89.5896979,195.870695L91.5,192L93.4103021,195.870695L97.6818674,196.49139L94.5909337,199.504305L95.3206041,203.75861Z" class="PKTMIqFR_18"></path>
            <path id="Star" fill="#EBD7FB" d="M80.5,209.75L76.6793959,211.75861L77.4090663,207.504305L74.3181326,204.49139L78.5896979,203.870695L80.5,200L82.4103021,203.870695L86.6818674,204.49139L83.5909337,207.504305L84.3206041,211.75861Z" class="PKTMIqFR_19"></path>
        </g>
    </g>
<style data-made-with="vivus-instant">.PKTMIqFR_0{stroke-dasharray:1231 1233;stroke-dashoffset:1232;}.start .PKTMIqFR_0{animation:PKTMIqFR_draw 5000ms ease-in-out 0ms forwards;}.PKTMIqFR_1{stroke-dasharray:44 46;stroke-dashoffset:45;}.start .PKTMIqFR_1{animation:PKTMIqFR_draw 5000ms ease-in-out 0ms forwards;}.PKTMIqFR_2{stroke-dasharray:44 46;stroke-dashoffset:45;}.start .PKTMIqFR_2{animation:PKTMIqFR_draw 5000ms ease-in-out 0ms forwards;}.PKTMIqFR_3{stroke-dasharray:44 46;stroke-dashoffset:45;}.start .PKTMIqFR_3{animation:PKTMIqFR_draw 5000ms ease-in-out 0ms forwards;}.PKTMIqFR_4{stroke-dasharray:44 46;stroke-dashoffset:45;}.start .PKTMIqFR_4{animation:PKTMIqFR_draw 5000ms ease-in-out 0ms forwards;}.PKTMIqFR_5{stroke-dasharray:44 46;stroke-dashoffset:45;}.start .PKTMIqFR_5{animation:PKTMIqFR_draw 5000ms ease-in-out 0ms forwards;}.PKTMIqFR_6{stroke-dasharray:44 46;stroke-dashoffset:45;}.start .PKTMIqFR_6{animation:PKTMIqFR_draw 5000ms ease-in-out 0ms forwards;}.PKTMIqFR_7{stroke-dasharray:44 46;stroke-dashoffset:45;}.start .PKTMIqFR_7{animation:PKTMIqFR_draw 5000ms ease-in-out 0ms forwards;}.PKTMIqFR_8{stroke-dasharray:44 46;stroke-dashoffset:45;}.start .PKTMIqFR_8{animation:PKTMIqFR_draw 5000ms ease-in-out 0ms forwards;}.PKTMIqFR_9{stroke-dasharray:44 46;stroke-dashoffset:45;}.start .PKTMIqFR_9{animation:PKTMIqFR_draw 5000ms ease-in-out 0ms forwards;}.PKTMIqFR_10{stroke-dasharray:44 46;stroke-dashoffset:45;}.start .PKTMIqFR_10{animation:PKTMIqFR_draw 5000ms ease-in-out 0ms forwards;}.PKTMIqFR_11{stroke-dasharray:44 46;stroke-dashoffset:45;}.start .PKTMIqFR_11{animation:PKTMIqFR_draw 5000ms ease-in-out 0ms forwards;}.PKTMIqFR_12{stroke-dasharray:44 46;stroke-dashoffset:45;}.start .PKTMIqFR_12{animation:PKTMIqFR_draw 5000ms ease-in-out 0ms forwards;}.PKTMIqFR_13{stroke-dasharray:44 46;stroke-dashoffset:45;}.start .PKTMIqFR_13{animation:PKTMIqFR_draw 5000ms ease-in-out 0ms forwards;}.PKTMIqFR_14{stroke-dasharray:44 46;stroke-dashoffset:45;}.start .PKTMIqFR_14{animation:PKTMIqFR_draw 5000ms ease-in-out 0ms forwards;}.PKTMIqFR_15{stroke-dasharray:44 46;stroke-dashoffset:45;}.start .PKTMIqFR_15{animation:PKTMIqFR_draw 5000ms ease-in-out 0ms forwards;}.PKTMIqFR_16{stroke-dasharray:44 46;stroke-dashoffset:45;}.start .PKTMIqFR_16{animation:PKTMIqFR_draw 5000ms ease-in-out 0ms forwards;}.PKTMIqFR_17{stroke-dasharray:44 46;stroke-dashoffset:45;}.start .PKTMIqFR_17{animation:PKTMIqFR_draw 5000ms ease-in-out 0ms forwards;}.PKTMIqFR_18{stroke-dasharray:44 46;stroke-dashoffset:45;}.start .PKTMIqFR_18{animation:PKTMIqFR_draw 5000ms ease-in-out 0ms forwards;}.PKTMIqFR_19{stroke-dasharray:44 46;stroke-dashoffset:45;}.start .PKTMIqFR_19{animation:PKTMIqFR_draw 5000ms ease-in-out 0ms forwards;}@keyframes PKTMIqFR_draw{100%{stroke-dashoffset:0;}}@keyframes PKTMIqFR_fade{0%{stroke-opacity:1;}95.65217391304348%{stroke-opacity:1;}100%{stroke-opacity:0;}}</style></svg>