<!--?xml version="1.0" encoding="UTF-8"?-->
<svg width="261px" height="141px" viewBox="0 0 261 141" version="1.1" xmlns="http://www.w3.org/2000/svg" xmlns:xlink="http://www.w3.org/1999/xlink" class="" style="">
    <!-- Generator: Sketch 52.5 (67469) - http://www.bohemiancoding.com/sketch -->
    <title>the little dipper copy</title>
    <desc>Created with Sketch.</desc>
    <g id="the-little-dipper-copy" stroke="none" stroke-width="1" fill="none" fill-rule="evenodd">
        <path id="Path-5" stroke="#FFFFFF" stroke-width="4" d="M230.717079,83.7482674L187.104435,72.7586105L141.871607,60.0897748L104.259415,63.6422521L53.6056357,99.8434212L28.3181326,77.7655155L79.8830672,35.5783336L104.259415,63.6422521" class="GwwXrQBu_0"></path>
        <path id="Star" fill="#EBD7FB" d="M230.5,86.75L226.679396,88.7586105L227.409066,84.5043052L224.318133,81.4913895L228.589698,80.8706948L230.5,77L232.410302,80.8706948L236.681867,81.4913895L233.590934,84.5043052L234.320604,88.7586105Z" class="GwwXrQBu_1"></path>
        <path id="Star" fill="#EBD7FB" d="M186.5,75.75L182.679396,77.7586105L183.409066,73.5043052L180.318133,70.4913895L184.589698,69.8706948L186.5,66L188.410302,69.8706948L192.681867,70.4913895L189.590934,73.5043052L190.320604,77.7586105Z" class="GwwXrQBu_2"></path>
        <path id="Star" fill="#EBD7FB" d="M141.5,63.75L137.679396,65.7586105L138.409066,61.5043052L135.318133,58.4913895L139.589698,57.8706948L141.5,54L143.410302,57.8706948L147.681867,58.4913895L144.590934,61.5043052L145.320604,65.7586105Z" class="GwwXrQBu_3"></path>
        <path id="Star" fill="#EBD7FB" d="M103.5,67.75L99.6793959,69.7586105L100.409066,65.5043052L97.3181326,62.4913895L101.589698,61.8706948L103.5,58L105.410302,61.8706948L109.681867,62.4913895L106.590934,65.5043052L107.320604,69.7586105Z" class="GwwXrQBu_4"></path>
        <path id="Star" fill="#EBD7FB" d="M79.5,38.75L75.6793959,40.7586105L76.4090663,36.5043052L73.3181326,33.4913895L77.5896979,32.8706948L79.5,29L81.4103021,32.8706948L85.6818674,33.4913895L82.5909337,36.5043052L83.3206041,40.7586105Z" class="GwwXrQBu_5"></path>
        <path id="Star" fill="#EBD7FB" d="M52.5,102.75L48.6793959,104.75861L49.4090663,100.504305L46.3181326,97.4913895L50.5896979,96.8706948L52.5,93L54.4103021,96.8706948L58.6818674,97.4913895L55.5909337,100.504305L56.3206041,104.75861Z" class="GwwXrQBu_6"></path>
        <path id="Star" fill="#EBD7FB" d="M28.5,81.75L24.6793959,83.7586105L25.4090663,79.5043052L22.3181326,76.4913895L26.5896979,75.8706948L28.5,72L30.4103021,75.8706948L34.6818674,76.4913895L31.5909337,79.5043052L32.3206041,83.7586105Z" class="GwwXrQBu_7"></path>
    </g>
<style data-made-with="vivus-instant">.GwwXrQBu_0{stroke-dasharray:330 332;stroke-dashoffset:331;}.start .GwwXrQBu_0{animation:GwwXrQBu_draw 5000ms ease-in-out 0ms forwards;}.GwwXrQBu_1{stroke-dasharray:44 46;stroke-dashoffset:45;}.start .GwwXrQBu_1{animation:GwwXrQBu_draw 5000ms ease-in-out 0ms forwards;}.GwwXrQBu_2{stroke-dasharray:44 46;stroke-dashoffset:45;}.start .GwwXrQBu_2{animation:GwwXrQBu_draw 5000ms ease-in-out 0ms forwards;}.GwwXrQBu_3{stroke-dasharray:44 46;stroke-dashoffset:45;}.start .GwwXrQBu_3{animation:GwwXrQBu_draw 5000ms ease-in-out 0ms forwards;}.GwwXrQBu_4{stroke-dasharray:44 46;stroke-dashoffset:45;}.start .GwwXrQBu_4{animation:GwwXrQBu_draw 5000ms ease-in-out 0ms forwards;}.GwwXrQBu_5{stroke-dasharray:44 46;stroke-dashoffset:45;}.start .GwwXrQBu_5{animation:GwwXrQBu_draw 5000ms ease-in-out 0ms forwards;}.GwwXrQBu_6{stroke-dasharray:44 46;stroke-dashoffset:45;}.start .GwwXrQBu_6{animation:GwwXrQBu_draw 5000ms ease-in-out 0ms forwards;}.GwwXrQBu_7{stroke-dasharray:44 46;stroke-dashoffset:45;}.start .GwwXrQBu_7{animation:GwwXrQBu_draw 5000ms ease-in-out 0ms forwards;}@keyframes GwwXrQBu_draw{100%{stroke-dashoffset:0;}}@keyframes GwwXrQBu_fade{0%{stroke-opacity:1;}95.65217391304348%{stroke-opacity:1;}100%{stroke-opacity:0;}}</style></svg>