<!--?xml version="1.0" encoding="UTF-8"?-->
<svg width="253px" height="212px" viewBox="0 0 253 212" version="1.1" xmlns="http://www.w3.org/2000/svg" xmlns:xlink="http://www.w3.org/1999/xlink" style="" class="">
    <!-- Generator: Sketch 52.4 (67378) - http://www.bohemiancoding.com/sketch -->
    <title>bigdipper copy</title>
    <desc>Created with Sketch.</desc>
    <g id="bigdipper-copy" stroke="none" stroke-width="1" fill="none" fill-rule="evenodd">
        
        <path d="M238.316223,24.4646697 L196.558179,45.1124559 L148.276204,101.630929 L146.921686,162.871448 L55.4407392,167.871843 L30.502565,112.774897 C104.464904,102.929621 143.722783,99.2149653 148.276204,101.630929" id="Path" stroke="#FFFFFF" stroke-width="4" class="qpwaJdpR_0"></path>
        <path id="Star" fill="#462F4F" d="M28.5,116.75L24.6793959,118.75861L25.4090663,114.504305L22.3181326,111.49139L26.5896979,110.870695L28.5,107L30.4103021,110.870695L34.6818674,111.49139L31.5909337,114.504305L32.3206041,118.75861Z" class="qpwaJdpR_1"></path>
        <path id="Star" fill="#462F4F" d="M55.5,168.75L51.6793959,170.75861L52.4090663,166.504305L49.3181326,163.49139L53.5896979,162.870695L55.5,159L57.4103021,162.870695L61.6818674,163.49139L58.5909337,166.504305L59.3206041,170.75861Z" class="qpwaJdpR_2"></path>
        <path id="Star" fill="#462F4F" d="M147.5,105.75L143.679396,107.75861L144.409066,103.504305L141.318133,100.49139L145.589698,99.8706948L147.5,96L149.410302,99.8706948L153.681867,100.49139L150.590934,103.504305L151.320604,107.75861Z" class="qpwaJdpR_3"></path>
        <path id="Star" fill="#462F4F" d="M147.5,166.75L143.679396,168.75861L144.409066,164.504305L141.318133,161.49139L145.589698,160.870695L147.5,157L149.410302,160.870695L153.681867,161.49139L150.590934,164.504305L151.320604,168.75861Z" class="qpwaJdpR_4"></path>
        <path id="Star" fill="#462F4F" d="M196.5,48.75L192.679396,50.7586105L193.409066,46.5043052L190.318133,43.4913895L194.589698,42.8706948L196.5,39L198.410302,42.8706948L202.681867,43.4913895L199.590934,46.5043052L200.320604,50.7586105Z" class="qpwaJdpR_5"></path>
        <path id="Star" fill="#462F4F" d="M237.5,28.75L233.679396,30.7586105L234.409066,26.5043052L231.318133,23.4913895L235.589698,22.8706948L237.5,19L239.410302,22.8706948L243.681867,23.4913895L240.590934,26.5043052L241.320604,30.7586105Z" class="qpwaJdpR_6"></path>
    </g>
<style data-made-with="vivus-instant">.qpwaJdpR_0{stroke-dasharray:453 455;stroke-dashoffset:454;}.hover .qpwaJdpR_0{animation:qpwaJdpR_draw 1866ms ease-in-out 0ms forwards;}.qpwaJdpR_1{stroke-dasharray:44 46;stroke-dashoffset:45;}.hover .qpwaJdpR_1{animation:qpwaJdpR_draw 1866ms ease-in-out 155ms forwards;}.qpwaJdpR_2{stroke-dasharray:44 46;stroke-dashoffset:45;}.hover .qpwaJdpR_2{animation:qpwaJdpR_draw 1866ms ease-in-out 311ms forwards;}.qpwaJdpR_3{stroke-dasharray:44 46;stroke-dashoffset:45;}.hover .qpwaJdpR_3{animation:qpwaJdpR_draw 1866ms ease-in-out 466ms forwards;}.qpwaJdpR_4{stroke-dasharray:44 46;stroke-dashoffset:45;}.hover .qpwaJdpR_4{animation:qpwaJdpR_draw 1866ms ease-in-out 622ms forwards;}.qpwaJdpR_5{stroke-dasharray:44 46;stroke-dashoffset:45;}.hover .qpwaJdpR_5{animation:qpwaJdpR_draw 1866ms ease-in-out 777ms forwards;}.qpwaJdpR_6{stroke-dasharray:44 46;stroke-dashoffset:45;}.hover .qpwaJdpR_6{animation:qpwaJdpR_draw 1866ms ease-in-out 933ms forwards;}@keyframes qpwaJdpR_draw{100%{stroke-dashoffset:0;}}@keyframes qpwaJdpR_fade{0%{stroke-opacity:1;}94.28571428571429%{stroke-opacity:1;}100%{stroke-opacity:0;}}</style></svg>