<?xml version="1.0" encoding="UTF-8"?>
<svg width="253px" height="212px" viewBox="0 0 253 212" version="1.1" xmlns="http://www.w3.org/2000/svg" xmlns:xlink="http://www.w3.org/1999/xlink">
    <!-- Generator: Sketch 52.4 (67378) - http://www.bohemiancoding.com/sketch -->
    <title>bigdipper copy</title>
    <desc>Created with Sketch.</desc>
    <g id="bigdipper-copy" stroke="none" stroke-width="1" fill="none" fill-rule="evenodd">
        
        <path d="M238.316223,24.4646697 L196.558179,45.1124559 L148.276204,101.630929 L146.921686,162.871448 L55.4407392,167.871843 L30.502565,112.774897 C104.464904,102.929621 143.722783,99.2149653 148.276204,101.630929" id="Path" stroke="#FFFFFF" stroke-width="4"></path>
        <polygon id="Star" fill="#462F4F" points="28.5 116.75 24.6793959 118.75861 25.4090663 114.504305 22.3181326 111.49139 26.5896979 110.870695 28.5 107 30.4103021 110.870695 34.6818674 111.49139 31.5909337 114.504305 32.3206041 118.75861"></polygon>
        <polygon id="Star" fill="#462F4F" points="55.5 168.75 51.6793959 170.75861 52.4090663 166.504305 49.3181326 163.49139 53.5896979 162.870695 55.5 159 57.4103021 162.870695 61.6818674 163.49139 58.5909337 166.504305 59.3206041 170.75861"></polygon>
        <polygon id="Star" fill="#462F4F" points="147.5 105.75 143.679396 107.75861 144.409066 103.504305 141.318133 100.49139 145.589698 99.8706948 147.5 96 149.410302 99.8706948 153.681867 100.49139 150.590934 103.504305 151.320604 107.75861"></polygon>
        <polygon id="Star" fill="#462F4F" points="147.5 166.75 143.679396 168.75861 144.409066 164.504305 141.318133 161.49139 145.589698 160.870695 147.5 157 149.410302 160.870695 153.681867 161.49139 150.590934 164.504305 151.320604 168.75861"></polygon>
        <polygon id="Star" fill="#462F4F" points="196.5 48.75 192.679396 50.7586105 193.409066 46.5043052 190.318133 43.4913895 194.589698 42.8706948 196.5 39 198.410302 42.8706948 202.681867 43.4913895 199.590934 46.5043052 200.320604 50.7586105"></polygon>
        <polygon id="Star" fill="#462F4F" points="237.5 28.75 233.679396 30.7586105 234.409066 26.5043052 231.318133 23.4913895 235.589698 22.8706948 237.5 19 239.410302 22.8706948 243.681867 23.4913895 240.590934 26.5043052 241.320604 30.7586105"></polygon>
    </g>
</svg>